<?xml version="1.0" encoding="UTF-8"?>
<svg xmlns="http://www.w3.org/2000/svg" xmlns:xlink="http://www.w3.org/1999/xlink" width="146px" height="150px" viewBox="0 0 110 113" version="1.1">
<g id="surface1">
<path style=" stroke:none;fill-rule:nonzero;fill:rgb(11.372549%,11.372549%,10.588235%);fill-opacity:1;" d="M 7.582031 61.003906 C 9.378906 61.175781 10.96875 59.851562 11.136719 58.058594 C 12.773438 40.472656 24.832031 25.691406 41.34375 20.316406 C 43.503906 25.742188 48.800781 29.578125 54.996094 29.578125 C 63.109375 29.578125 69.683594 23.003906 69.683594 14.894531 C 69.683594 6.78125 63.109375 0.214844 54.996094 0.214844 C 46.882812 0.214844 40.917969 6.203125 40.355469 13.789062 C 20.855469 19.675781 6.554688 36.894531 4.636719 57.453125 C 4.464844 59.25 5.789062 60.84375 7.582031 61.003906 Z M 7.582031 61.003906 "/>
<path style=" stroke:none;fill-rule:nonzero;fill:rgb(11.372549%,11.372549%,10.588235%);fill-opacity:1;" d="M 104.394531 73.136719 C 105.179688 69.582031 105.578125 65.921875 105.578125 62.210938 C 105.578125 45.226562 97.152344 29.679688 83.359375 20.328125 C 81.863281 19.316406 79.839844 19.703125 78.828125 21.195312 C 77.8125 22.6875 78.199219 24.714844 79.695312 25.726562 C 91.714844 33.878906 99.054688 47.417969 99.054688 62.210938 C 99.054688 64.9375 98.804688 67.640625 98.320312 70.277344 C 92.261719 68.992188 85.808594 71.652344 82.554688 77.304688 C 78.5 84.324219 80.90625 93.304688 87.929688 97.363281 C 94.953125 101.414062 103.933594 99.011719 107.996094 91.988281 C 111.683594 85.601562 110.019531 77.582031 104.394531 73.144531 Z M 104.394531 73.136719 "/>
<path style=" stroke:none;fill-rule:nonzero;fill:rgb(11.372549%,11.372549%,10.588235%);fill-opacity:1;" d="M 74.566406 101.683594 C 68.539062 104.675781 61.886719 106.253906 55.003906 106.253906 C 43.851562 106.253906 33.367188 102.097656 25.351562 94.789062 C 29.746094 90.195312 30.789062 83.082031 27.445312 77.296875 C 23.390625 70.277344 14.40625 67.871094 7.382812 71.921875 C 0.359375 75.980469 -2.050781 84.957031 2.003906 91.980469 C 5.617188 98.246094 13.152344 100.832031 19.71875 98.453125 C 29.078125 107.5625 41.625 112.785156 55.003906 112.785156 C 62.902344 112.785156 70.542969 110.972656 77.472656 107.53125 C 79.085938 106.726562 79.746094 104.769531 78.941406 103.15625 C 78.136719 101.539062 76.183594 100.882812 74.566406 101.683594 Z M 74.566406 101.683594 "/>
</g>
</svg>
